<svg viewBox="0 0 2340 1560" xmlns="http://www.w3.org/2000/svg"><defs><style>.cls-1{fill:#fff;}.cls-1,.cls-2,.cls-3,.cls-5,.cls-6,.cls-7{stroke:#1a1a1a;stroke-linecap:round;stroke-linejoin:round;}.cls-1,.cls-3,.cls-6{stroke-width:2px;}.cls-2,.cls-3,.cls-7{fill:none;}.cls-2,.cls-7{stroke-width:3px;}.cls-4{fill:#1a1a1a;}.cls-5{fill:#25383f;}.cls-6{fill:#ff6d24;}.cls-7{stroke-dasharray:12;}</style></defs><g id="_7"><polygon points="564.59 763 712.98 763 688.77 845.56 583.54 845.56 564.59 763" class="cls-1"></polygon><polyline points="695.61 770.85 750.33 770.85 752.26 757.16 779.27 757.16" class="cls-2"></polyline><path d="M591.6,855H686c20.34,0,19.29,22.1,0,22.1H591.6" class="cls-3"></path><circle r="23.15" cy="888.45" cx="599.85" class="cls-3"></circle><circle r="23.15" cy="888.45" cx="684.3" class="cls-3"></circle><polygon points="604.27 790.58 586.67 790.58 583.59 776.23 602.28 776.23 604.27 790.58" class="cls-1"></polygon><polygon points="631.35 790.58 613.76 790.58 612.36 776.23 631.06 776.23 631.35 790.58" class="cls-1"></polygon><polygon points="658.44 790.58 640.84 790.58 641.14 776.23 659.83 776.23 658.44 790.58" class="cls-1"></polygon><polygon points="685.52 790.58 667.92 790.58 669.91 776.23 688.61 776.23 685.52 790.58" class="cls-1"></polygon><polygon points="606.92 809.72 590.79 809.72 588.21 797.72 605.26 797.72 606.92 809.72" class="cls-1"></polygon><polygon points="631.75 809.72 615.62 809.72 614.45 797.72 631.5 797.72 631.75 809.72" class="cls-1"></polygon><polygon points="656.58 809.72 640.45 809.72 640.69 797.72 657.74 797.72 656.58 809.72" class="cls-1"></polygon><polygon points="681.41 809.72 665.28 809.72 666.94 797.72 683.99 797.72 681.41 809.72" class="cls-1"></polygon><polygon points="609.16 825.92 594.27 825.92 592.08 815.74 607.75 815.74 609.16 825.92" class="cls-1"></polygon><polygon points="632.08 825.92 617.19 825.92 616.2 815.74 631.87 815.74 632.08 825.92" class="cls-1"></polygon><polygon points="655 825.92 640.11 825.92 640.32 815.74 655.99 815.74 655 825.92" class="cls-1"></polygon><polygon points="677.93 825.92 663.03 825.92 664.44 815.74 680.12 815.74 677.93 825.92" class="cls-1"></polygon><path d="M879.18,1256.18c-43.77-83.64-136.47-114.11-199-82.91-52.85,26.37-67.14,88.29-70.73,112.15H880Z" class="cls-2"></path><rect height="86.9" width="54.78" y="1007.91" x="617.51" class="cls-4"></rect><path d="M1024.05,675.11s16.21-31.69,9.34-50.86S1012.26,585,984.25,594c-16.7,4.17-8.35,12.77-22.11,7.86s-24.41-.25-32.23,3.93-8.3,19.16-14.2,24.81-18.18.49-23.34,17.2,15.72,39.58,8.72,52.95-32.06,9-34.27,48.76,75.4,19.16,84.13,10.68S1024.05,675.11,1024.05,675.11Z" class="cls-5"></path><path d="M948.88,743.4s-32.19,54.05-29.48,58.72,34.39,15.48,59,9.83c3.93-1,20.63-66.58,20.63-66.58S950.72,740.28,948.88,743.4Z" class="cls-1"></path><path d="M1021.23,644.52s18.35,56.75-2.8,94-82.7,7-82.7,7-2.45-12.28,1-12.9-13.24-13.75-6.81-23.83,19.46-10.07,25.11,4.43c3.44,5.16,10.4-3.44,4.09-16.22s-6.46-27.51,0-31S984,652.75,999,657.66,1021.1,652.75,1021.23,644.52Z" class="cls-1"></path><path d="M603.75,1386.66h1132.5c17.79,0,32.21-22.74,32.21-50.8h0c0-28.06-14.42-50.8-32.21-50.8H603.75c-17.79,0-32.21,22.74-32.21,50.8h0C571.54,1363.92,586,1386.66,603.75,1386.66Z" class="cls-2"></path><path d="M1018.65,1285.72s457.45,2.58,469.35-4.79,5.52-15.72,5.52-15.72l-2.45-47.17S1118.88,1138.94,1099,1144,1018.65,1285.72,1018.65,1285.72Z" class="cls-1"></path><path d="M1491.07,1218s16.7,18.42,2.45,47.17C1483,1261,1471.41,1235.71,1491.07,1218Z" class="cls-1"></path><path d="M1492.17,1223s15.67,16.14,2.3,41.32C1484.56,1260.64,1473.72,1238.45,1492.17,1223Z" class="cls-4"></path><rect transform="translate(723.59 -671.95) rotate(36.89)" rx="66.15" height="748.46" width="375.43" y="374.69" x="1181.54" class="cls-4"></rect><rect transform="translate(717.39 -667.15) rotate(36.89)" rx="66.15" height="748.46" width="375.43" y="367.79" x="1171.25" class="cls-1"></rect><path d="M1042.1,889.05a43.4,43.4,0,0,0,8.67,60.76l194.46,145.94a43.41,43.41,0,0,0,60.78-8.67l19.43-25.9L1060.65,864.33Z" class="cls-1"></path><path d="M1667.17,533.49,1472.7,387.56a43.38,43.38,0,0,0-60.77,8.66L1060.65,864.33l264.79,196.85,350.39-466.92A43.45,43.45,0,0,0,1667.17,533.49Z" class="cls-1"></path><polygon points="1386.09 528.62 1563.26 658.5 1555.88 667.34 1380.48 535.96 1386.09 528.62" class="cls-1"></polygon><polygon points="1354.12 563.26 1531.29 693.14 1523.92 701.98 1348.52 570.6 1354.12 563.26" class="cls-1"></polygon><polygon points="1322.16 597.9 1499.33 727.78 1491.96 736.62 1316.55 605.24 1322.16 597.9" class="cls-1"></polygon><polygon points="1296.53 634.9 1473.7 764.78 1466.33 773.62 1290.93 642.24 1296.53 634.9" class="cls-1"></polygon><polygon points="1267.16 674.29 1444.33 804.17 1436.96 813.01 1261.55 681.63 1267.16 674.29" class="cls-1"></polygon><polygon points="1420.26 486.01 1462.03 516.96 1454.16 527.64 1412.89 497.31 1420.26 486.01" class="cls-1"></polygon><polygon points="1163.02 871.23 1275.92 961.55 1351.7 864.6 1243.63 771.97 1163.02 871.23" class="cls-4"></polygon><polygon points="1177.61 869.66 1244.96 786.73 1337.47 866.02 1274.21 946.94 1177.61 869.66" class="cls-1"></polygon><polygon points="1206.51 790.16 1229.11 884.01 1380.44 837.08 1367.66 800.48 1251.22 839.79 1236.97 784.76 1206.51 790.16" class="cls-6"></polygon><path d="M834.89,1163.5s-28.5,65.35,2.94,111.53,173.08,123.45,322.32-131.92c103.92,98.39,149.25,130.45,206.73,112.76l23.22-40.9s-108.59-167.36-186.1-183.89c-71.36-15.21-135.61,25.8-159.56,59-5.16-6.63-14.37,6.27-14.37,6.27-5.16-5.16-35.75,5.89-35.75,5.89Z" class="cls-1"></path><path d="M827.22,1172.16s50.11,17.2,104.9-8.11,83.52-48.52,83.52-48.52l-49.37-2.33-133.4,48.15Z" class="cls-4"></path><path d="M731.66,1268.49s-24.32-4.67-26.53,7.62,32.92,10.56,50.11,8.84,17.44-16.21,16.22-21.37,2.45-19.16,2.45-19.16l-23.58-10.32s-3.44,12-7.25,16.46-23,1.47-36.48-1.11S653.54,1273,653.54,1273s-5.66,9.7,15.47,8.72a321.16,321.16,0,0,1,39.82.75" class="cls-1"></path><path d="M836.5,881.69s-57.43,138.89-79.42,264.42c-8.48,57.25-14,92.65-14,92.65s7,14,31,10c19.9-36.48,96-201.35,115.19-213.63C892.18,1006.09,836.5,881.69,836.5,881.69Z" class="cls-6"></path><path d="M822.6,1157.11s-42.25-218.4,38.08-319.37,157.6-36.24,169.39-1.23,38.2,129.47-8,274.41C979.83,1143.84,824.81,1196.17,822.6,1157.11Z" class="cls-6"></path><path d="M1407.29,1287.32l2.46,5.41s19.66-8.36,43.24-36.86,47.41-62.15,36.6-63-30.46,10.68-30.46,10.68Z" class="cls-5"></path><path d="M1422.11,1272.93c-4.49,9-13.32,16.33-23.33,18.53a22.44,22.44,0,0,0,2.74.89c22.11,5.53,43.85-51.59,55.28-73.7a49.57,49.57,0,0,1,32.79-25.79,83.28,83.28,0,0,0-3.24-8.11C1450,1196.27,1438.47,1240.19,1422.11,1272.93Z" class="cls-1"></path><path d="M1361.55,1255s-5.53-13,7.74-26.9,17.81-13.1,17.81-13.1,1.23,6.84-3.2,15.56S1366.22,1259.74,1361.55,1255Z" class="cls-4"></path><path d="M1422.11,1272.93c16.36-32.74,27.93-76.66,64.24-88.18-2.31-5-5.54-10.25-8.55-9.49-5.53,1.38-82.26,41.92-88.85,41.73s-24.28,30.4-24.28,30.4,13.53,36.16,34.11,44.07C1408.79,1289.26,1417.62,1281.91,1422.11,1272.93Z" class="cls-1"></path><path d="M1000.75,832.23s-55.27,8.84-49.38,63.38,54.54,131.19,117.92,137.82,136.35-55.27,150.35-88.44c6.83-12.71-19.45-28.68-28-26.53,0,0-97.29,78.12-151.09-37.59C1025.07,845.5,1010.21,829.69,1000.75,832.23Z" class="cls-6"></path><path d="M1191,922.09c-6.68,4.67-14.91,8.84-2.38,23.58s23.49,15.69,28.37,1.35S1197.71,917.42,1191,922.09Z" class="cls-4"></path><path d="M1191.39,927.3s29.48-37.09,47.41-39.06,38.82,1.72,42.26,10.08-14,11.79-14,11.79,7.37,24.32-9.09,26.53-32.19-12.28-32.19-12.28-10.24,26.18-16.06,27.8C1202.44,954.21,1188.2,941.31,1191.39,927.3Z" class="cls-1"></path><path d="M1550.82,1275.22s-14.48,3.78-14.48-21,14.91-88.53,4.26-106.8,12.78-1.27,17.46,17.42S1575.1,1267.58,1550.82,1275.22Z" class="cls-5"></path><path d="M1529.53,1142.57c-14.61,8.83-21.33,41.3-22.3,58.18-1.14,19.82-19,31.43-19,31.43-17.55,23.27,0,45.59,0,45.59l47.64-1.84C1543,1231.65,1546,1184.39,1529.53,1142.57Z" class="cls-1"></path><path d="M1537.89,1140.31a14.85,14.85,0,0,0-8.36,2.26c16.43,41.82,13.43,89.08,6.31,133.36l12.85-.5S1552.38,1165.07,1537.89,1140.31Z" class="cls-1"></path><path d="M921.43,1168.49s-20,90.75,52.36,78.17,147.93-180,200.77-163.7,159,140,184.41,148.34" class="cls-7"></path><circle r="18.43" cy="490.23" cx="1547.92" class="cls-1"></circle><rect height="9.21" width="277.6" y="1047.98" x="1486.35" class="cls-1"></rect><rect height="50.12" width="33.41" y="994.05" x="1701.8" class="cls-4"></rect><rect height="86.9" width="54.78" y="957.27" x="1621.47" class="cls-1"></rect><rect height="86.9" width="54.78" y="1030.77" x="644.9" class="cls-1"></rect><rect height="50.34" width="58.96" y="1247.85" x="1652.67" class="cls-1"></rect><path d="M640.84,700.79c46-176.34,217.3-278.22,367.68-242.79,118.07,27.82,211.06,137.4,227,272.69" class="cls-7"></path></g></svg>